<svg xmlns="http://www.w3.org/2000/svg" viewBox="0 0 120.95 126.34"><defs><style>.cls-1{fill:none;stroke:#f66c8e;stroke-miterlimit:11.34;stroke-width:2.11px;}.cls-2,.cls-3{fill:#8c65fe;stroke:#8c65fe;stroke-linecap:round;stroke-linejoin:round;}.cls-2{stroke-width:0.56px;}.cls-3{stroke-width:0.57px;}.cls-4{fill:#fee240;stroke:#fee240;stroke-miterlimit:18.65;stroke-width:2.11px;}.cls-4,.cls-5,.cls-6{stroke-linecap:square;}.cls-5{fill:#3ffecb;stroke:#3ffecb;}.cls-5,.cls-6{stroke-miterlimit:14.17;stroke-width:2.11px;}.cls-6{fill:#40ccfd;stroke:#40ccfd;}</style></defs><g id="Layer_2" data-name="Layer 2"><g id="Megacorp"><g id="UIH"><path id="path830-50-2-2-3" class="cls-1" d="M13.51,35.4,9.53,42,4.1,40.13,7,76.39,1.79,78.26,25,105.42l-3.36,5.49L56,118.26l1.19,6.59,3.31-1.44m0,0,29.34-12.73,3.44,4.67,19-31.11,5.54,1.68-2.52-36.79,3.92-1.8L109.12,35.11m-95.7.42L28.09,11l4.36,5.36L64.6,1.63l.12,6.48,35,7.47,1.06.22L97,20.75,109.28,35.3"/><path id="path840-6-66-4-21" class="cls-2" d="M50,76.51l-4.8,0-3.42-3.68,0-5.22,3.38-3.71,4.81,0,3.42,3.68,0,5.22Z"/><path id="path840-5-8-9-4-3" class="cls-3" d="M76.32,76.66l-4.81,0L68.1,73l0-5.23,3.38-3.71,4.81,0,3.42,3.68,0,5.22Z"/><path id="path840-5-9-1-77-6-3" class="cls-3" d="M63.27,53.93l-4.8,0-3.42-3.68,0-5.22,3.38-3.71,4.81,0L66.64,45l0,5.23Z"/><g id="g949-24-1-2-8"><path id="path878-1-5-6-3-3" class="cls-4" d="M38.37,59.48l-4.82,2.67-5.43-4.09-6,3.24-.22-19.49,5.61,3.27-.35,4.56,2.24,4.12Zm8.12-13.56,0-5.51-6.19-2.82V30.78L23,40l5.59,3.26,3.9-2.49h4.69Z"/></g><path id="path878-1-9-05-96-7-9" class="cls-5" d="M53.07,84.56l-4.79,2.72L49,94.05l-5.89,3.42L59.6,107.79l.13-6.48-4.07-2.08L53.3,95.17Zm15.81.11,4.73,2.83-.81,6.75,5.81,3.54-16.91,10,.14-6.46,4.15-2,2.44-4Z"/><path id="path878-1-7-0-2-4-3" class="cls-6" d="M83.25,59.88l4.85,2.61,5.38-4.16,6,3.17,0-19.48-5.57,3.32.4,4.56-2.19,4.15ZM75,46.41l-.11-5.5L81,38l-.08-6.81,17.45,9-5.56,3.32-3.92-2.44-4.7.06Z"/></g></g></g></svg>